<?xml version="1.0" encoding="UTF-8"?><svg id="Layer_2" xmlns="http://www.w3.org/2000/svg" viewBox="0 0 903.24 464.27"><defs><style>.cls-1,.cls-2{fill:#9d2235;}.cls-2{stroke:#9d2235;stroke-miterlimit:10;}</style></defs><g id="Layer_1-2"><path class="cls-1" d="M883.24,20v424.27H20V20h863.24M903.24,0H0v464.27h903.24V0h0Z"/><path class="cls-2" d="M107.95,234.17c0-57.17,41.59-100.39,96.46-100.39,32.11,0,49.32,14.77,55.82,14.77,8.54,0,5.42-8.94,13.28-8.94,4.34,0,6.23,2.03,6.23,6.64v50.67c0,3.52-1.76,5.83-4.61,5.83s-5.01-1.08-7.32-6.5c-12.87-31.16-36.85-49.45-64.62-49.45-37.53,0-65.17,32.92-65.17,77.36,0,47.96,30.62,81.97,73.7,81.97,26.01,0,47.28-14.23,63.27-42.13,1.49-2.98,4.2-4.06,6.5-3.52,3.12.81,4.88,3.52,3.52,6.91-13.68,39.15-45.39,63.13-84.27,63.13-53.65,0-92.8-40.78-92.8-96.33Z"/><path class="cls-2" d="M306.68,327.24c-3.66,0-4.34-2.57-4.34-5.42,0-3.25.14-5.55,4.88-6.1l11.79-1.22c13.28-1.22,17.07-6.91,17.07-20.19v-124.37c0-13.28-3.79-18.97-17.07-20.19l-11.79-1.22c-4.74-.54-4.88-2.85-4.88-6.1,0-2.85.68-5.42,4.34-5.42,13.41,0,28.45.41,43.62.41h.41c15.17,0,30.08-.41,43.62-.41,3.52,0,4.34,2.57,4.34,5.42,0,3.25-.27,5.55-4.88,6.1l-11.79,1.22c-13.28,1.22-17.07,6.91-17.07,20.19v122.75c0,17.21,5.01,21.81,24.52,21.81h34.14c16.53,0,20.73-2.85,32.24-43.76,1.08-3.79,2.98-5.42,5.96-5.42s5.01,2.44,5.01,5.55v49.99c0,4.34-1.9,6.23-6.37,6.23-36.31,0-65.98,0-106.89-.27h-3.25c-15.17,0-30.21.41-43.62.41Z"/><path class="cls-2" d="M533.27,326.83c-15.04,0-30.08.41-43.35.41-3.66,0-4.34-2.57-4.34-5.42,0-3.25.14-5.55,4.88-6.1l11.79-1.22c13.28-1.22,17.07-6.91,17.07-20.19v-124.37c0-13.28-3.79-18.97-17.07-20.19l-11.79-1.22c-4.74-.54-4.88-2.85-4.88-6.1,0-2.85.68-5.42,4.34-5.42,13.28,0,28.32.41,43.35.41s29.94-.41,43.35-.41c3.52,0,4.34,2.57,4.34,5.42,0,3.25-.27,5.55-4.88,6.1l-11.79,1.22c-13.28,1.22-17.07,6.91-17.07,20.19v124.37c0,13.28,3.79,18.97,17.07,20.19l11.79,1.22c4.61.54,4.88,2.85,4.88,6.1,0,2.85-.81,5.42-4.34,5.42-13.41,0-28.04-.41-43.08-.41h-.27Z"/><path class="cls-2" d="M604.53,315.73l11.79-1.08c13.28-1.35,17.07-6.91,17.07-20.19v-124.64c0-13.28-3.79-18.83-17.07-20.19l-11.79-1.08c-4.74-.54-4.88-2.98-4.88-6.1s.68-5.55,4.34-5.55c13.41,0,28.45.41,43.62.41h2.3c8.13,0,23.03-.54,31.97-.54,55.41,0,86.57,19.92,86.57,54.33,0,25.06-16.66,45.25-45.93,54.73l28.99,46.06c11.38,18.15,16.26,21.81,38.61,23.44,3.52.27,5.15,2.57,5.15,6.1,0,3.93-1.76,5.83-5.55,5.83-3.39,0-13.14-.27-21.95-.27s-14.23.27-17.48.27c-8.67,0-11.52-2.17-15.58-8.54l-34.14-55.82c-5.28-8.67-10.84-11.38-22.63-11.38h-15.85v42.95c0,13.28,4.06,18.83,18.29,20.19l12.6,1.08c5.01.54,5.28,2.98,5.28,6.1s-.81,5.55-4.74,5.55c-14.23,0-30.21-.41-46.33-.41-15.04,0-29.94.41-43.22.41-3.66,0-4.34-2.57-4.34-5.55s.14-5.55,4.88-6.1ZM736.63,192.71c0-27.5-20.73-43.49-52.7-43.49-16.53,0-21.81,4.2-21.81,17.61v72.48h18.7c34.01,0,55.82-18.29,55.82-46.61Z"/></g></svg>